<svg width="237" height="156" viewBox="0 0 237 156" fill="none" xmlns="http://www.w3.org/2000/svg">
<g filter="url(#filter0_d_1_2599)">
<rect x="10.9995" y="9" width="212.386" height="131.419" rx="12.7003" fill="white"/>
<path d="M31.0586 23.0473C31.0586 22.9796 31.0925 22.9457 31.1602 22.9457H31.6784C31.7461 22.9457 31.78 22.9796 31.78 23.0473V29.9563C31.78 30.024 31.7461 30.0579 31.6784 30.0579H31.1704C31.123 30.0579 31.0823 30.0342 31.0484 29.9867L27.5838 24.3478C27.577 24.3275 27.5669 24.3207 27.5533 24.3275C27.5398 24.3275 27.533 24.3377 27.533 24.358L27.5432 29.9563C27.5432 30.024 27.5093 30.0579 27.4416 30.0579H26.9234C26.8557 30.0579 26.8218 30.024 26.8218 29.9563V23.0473C26.8218 22.9796 26.8557 22.9457 26.9234 22.9457H27.4314C27.4788 22.9457 27.5195 22.9694 27.5533 23.0168L31.018 28.6558C31.0247 28.6761 31.0349 28.6862 31.0484 28.6862C31.062 28.6795 31.0688 28.6659 31.0688 28.6456L31.0586 23.0473ZM37.4878 26.6237C37.5149 26.8134 37.5284 27.0504 37.5284 27.3349V27.6601C37.5284 27.7278 37.4946 27.7617 37.4268 27.7617H34.1451C34.118 27.7617 34.1044 27.7752 34.1044 27.8023C34.118 28.1748 34.1383 28.4153 34.1654 28.5237C34.2399 28.8285 34.3991 29.0689 34.6429 29.245C34.8868 29.4212 35.1984 29.5092 35.5777 29.5092C35.8622 29.5092 36.1128 29.4449 36.3295 29.3162C36.5463 29.1875 36.7156 29.0046 36.8375 28.7675C36.8782 28.7066 36.9256 28.693 36.9798 28.7269L37.376 28.9606C37.4302 28.9944 37.4438 29.0418 37.4167 29.1028C37.2473 29.4279 36.9933 29.6853 36.6547 29.875C36.316 30.0579 35.9265 30.1493 35.4862 30.1493C35.0053 30.1425 34.6023 30.0274 34.2772 29.8039C33.952 29.5803 33.7184 29.2688 33.5761 28.8691C33.4542 28.544 33.3932 28.0766 33.3932 27.467C33.3932 27.1825 33.3966 26.9522 33.4034 26.7761C33.4169 26.5932 33.444 26.4307 33.4847 26.2884C33.5998 25.8481 33.8301 25.4959 34.1756 25.2318C34.5278 24.9676 34.9511 24.8355 35.4456 24.8355C36.062 24.8355 36.5361 24.9913 36.868 25.3029C37.1999 25.6145 37.4065 26.0547 37.4878 26.6237ZM35.4456 25.4654C35.1137 25.4654 34.836 25.5535 34.6125 25.7296C34.3957 25.8989 34.2535 26.1292 34.1857 26.4205C34.1451 26.5627 34.118 26.793 34.1044 27.1114C34.1044 27.1385 34.118 27.152 34.1451 27.152H36.7766C36.8037 27.152 36.8172 27.1385 36.8172 27.1114C36.8037 26.8066 36.7834 26.5898 36.7563 26.4611C36.6818 26.1563 36.5294 25.9159 36.2991 25.7398C36.0755 25.5569 35.791 25.4654 35.4456 25.4654ZM41.2 25.4146C41.2 25.4824 41.1661 25.5162 41.0984 25.5162H39.9503C39.9232 25.5162 39.9097 25.5298 39.9097 25.5569V28.5542C39.9097 28.8793 39.9808 29.1096 40.123 29.245C40.272 29.3737 40.5023 29.4381 40.8139 29.4381H41.0679C41.1357 29.4381 41.1695 29.472 41.1695 29.5397V29.9563C41.1695 30.024 41.1357 30.0579 41.0679 30.0579C40.9866 30.0646 40.8613 30.068 40.692 30.068C40.2043 30.068 39.8352 29.9766 39.5845 29.7937C39.3339 29.6108 39.2086 29.2721 39.2086 28.7777V25.5569C39.2086 25.5298 39.1951 25.5162 39.168 25.5162H38.5482C38.4805 25.5162 38.4466 25.4824 38.4466 25.4146V25.0184C38.4466 24.9507 38.4805 24.9168 38.5482 24.9168H39.168C39.1951 24.9168 39.2086 24.9032 39.2086 24.8762V23.6976C39.2086 23.6298 39.2425 23.596 39.3102 23.596H39.8081C39.8758 23.596 39.9097 23.6298 39.9097 23.6976V24.8762C39.9097 24.9032 39.9232 24.9168 39.9503 24.9168H41.0984C41.1661 24.9168 41.2 24.9507 41.2 25.0184V25.4146ZM46.8232 30.1391C46.0578 30.1391 45.4516 29.9664 45.0045 29.621C44.5643 29.2755 44.3441 28.8149 44.3441 28.2392V27.9242C44.3441 27.8565 44.378 27.8226 44.4457 27.8226H44.9436C45.0113 27.8226 45.0452 27.8565 45.0452 27.9242V28.1985C45.0452 28.5914 45.2077 28.9098 45.5329 29.1536C45.858 29.3907 46.3084 29.5092 46.8842 29.5092C47.4057 29.5092 47.802 29.4008 48.0729 29.1841C48.3438 28.9606 48.4793 28.6659 48.4793 28.3001C48.4793 28.0631 48.415 27.8599 48.2863 27.6905C48.1644 27.5212 47.9713 27.362 47.7071 27.213C47.4498 27.064 47.084 26.8913 46.6098 26.6948C46.1018 26.4916 45.7056 26.3155 45.4211 26.1665C45.1434 26.0107 44.9165 25.8143 44.7404 25.5772C44.571 25.3334 44.4864 25.0286 44.4864 24.6628C44.4864 24.0938 44.6828 23.6535 45.0756 23.342C45.4753 23.0236 46.0205 22.8644 46.7114 22.8644C47.4633 22.8644 48.056 23.0405 48.4895 23.3928C48.923 23.745 49.1397 24.2124 49.1397 24.7949V25.0184C49.1397 25.0861 49.1059 25.12 49.0381 25.12H48.5301C48.4624 25.12 48.4285 25.0861 48.4285 25.0184V24.8355C48.4285 24.4427 48.2727 24.1209 47.9611 23.8703C47.6563 23.6197 47.2296 23.4944 46.681 23.4944C46.2 23.4944 45.8309 23.5926 45.5735 23.789C45.3161 23.9854 45.1874 24.2699 45.1874 24.6425C45.1874 24.8863 45.2484 25.0895 45.3703 25.2521C45.499 25.4079 45.6785 25.5467 45.9088 25.6687C46.1459 25.7838 46.5082 25.9362 46.9959 26.1259C47.4904 26.3291 47.8866 26.5187 48.1847 26.6948C48.4895 26.8709 48.7333 27.0877 48.9162 27.3451C49.1059 27.5957 49.2007 27.9039 49.2007 28.2697C49.2007 28.8386 48.9907 29.2925 48.5708 29.6311C48.1508 29.9698 47.5683 30.1391 46.8232 30.1391ZM52.3202 24.8355C52.9298 24.8355 53.4006 24.9913 53.7325 25.3029C54.0644 25.6145 54.2303 26.0276 54.2303 26.5424V29.9563C54.2303 30.024 54.1964 30.0579 54.1287 30.0579H53.6105C53.5428 30.0579 53.5089 30.024 53.5089 29.9563V29.5397C53.5089 29.5261 53.5022 29.516 53.4886 29.5092C53.4818 29.5024 53.4717 29.5058 53.4581 29.5194C53.2888 29.7226 53.0687 29.8784 52.7977 29.9867C52.5268 30.0883 52.2254 30.1391 51.8935 30.1391C51.4125 30.1391 51.0095 30.0172 50.6844 29.7734C50.3593 29.5295 50.1967 29.157 50.1967 28.6558C50.1967 28.1477 50.3796 27.7481 50.7454 27.4568C51.1179 27.1588 51.6327 27.0098 52.2897 27.0098H53.4683C53.4954 27.0098 53.5089 26.9963 53.5089 26.9692V26.5831C53.5089 26.2376 53.4107 25.9667 53.2143 25.7703C53.0246 25.567 52.7266 25.4654 52.3202 25.4654C51.9951 25.4654 51.7309 25.5298 51.5277 25.6585C51.3245 25.7804 51.1992 25.9531 51.1518 26.1767C51.1315 26.2444 51.0908 26.2749 51.0298 26.2681L50.4812 26.197C50.4067 26.1834 50.3762 26.1563 50.3898 26.1157C50.4439 25.7364 50.6471 25.4282 50.9994 25.1911C51.3516 24.9541 51.7919 24.8355 52.3202 24.8355ZM52.0357 29.5194C52.4353 29.5194 52.7808 29.4212 53.0721 29.2247C53.3633 29.0215 53.5089 28.7506 53.5089 28.4119V27.6194C53.5089 27.5923 53.4954 27.5788 53.4683 27.5788H52.4015C51.9544 27.5788 51.5954 27.6702 51.3245 27.8531C51.0536 28.036 50.9181 28.29 50.9181 28.6151C50.9181 28.9131 51.0197 29.1401 51.2229 29.2958C51.4329 29.4449 51.7038 29.5194 52.0357 29.5194ZM55.833 30.0579C55.7653 30.0579 55.7314 30.024 55.7314 29.9563V23.0473C55.7314 22.9796 55.7653 22.9457 55.833 22.9457H56.3512C56.4189 22.9457 56.4528 22.9796 56.4528 23.0473V29.9563C56.4528 30.024 56.4189 30.0579 56.3512 30.0579H55.833ZM62.0152 26.6237C62.0423 26.8134 62.0558 27.0504 62.0558 27.3349V27.6601C62.0558 27.7278 62.0219 27.7617 61.9542 27.7617H58.6725C58.6454 27.7617 58.6318 27.7752 58.6318 27.8023C58.6454 28.1748 58.6657 28.4153 58.6928 28.5237C58.7673 28.8285 58.9265 29.0689 59.1703 29.245C59.4142 29.4212 59.7257 29.5092 60.1051 29.5092C60.3895 29.5092 60.6402 29.4449 60.8569 29.3162C61.0737 29.1875 61.243 29.0046 61.3649 28.7675C61.4056 28.7066 61.453 28.693 61.5072 28.7269L61.9034 28.9606C61.9576 28.9944 61.9711 29.0418 61.9441 29.1028C61.7747 29.4279 61.5207 29.6853 61.182 29.875C60.8434 30.0579 60.4539 30.1493 60.0136 30.1493C59.5327 30.1425 59.1297 30.0274 58.8046 29.8039C58.4794 29.5803 58.2457 29.2688 58.1035 28.8691C57.9816 28.544 57.9206 28.0766 57.9206 27.467C57.9206 27.1825 57.924 26.9522 57.9308 26.7761C57.9443 26.5932 57.9714 26.4307 58.0121 26.2884C58.1272 25.8481 58.3575 25.4959 58.7029 25.2318C59.0552 24.9676 59.4785 24.8355 59.973 24.8355C60.5894 24.8355 61.0635 24.9913 61.3954 25.3029C61.7273 25.6145 61.9339 26.0547 62.0152 26.6237ZM59.973 25.4654C59.6411 25.4654 59.3634 25.5535 59.1398 25.7296C58.9231 25.8989 58.7808 26.1292 58.7131 26.4205C58.6725 26.5627 58.6454 26.793 58.6318 27.1114C58.6318 27.1385 58.6454 27.152 58.6725 27.152H61.304C61.3311 27.152 61.3446 27.1385 61.3446 27.1114C61.3311 26.8066 61.3107 26.5898 61.2836 26.4611C61.2091 26.1563 61.0567 25.9159 60.8264 25.7398C60.6029 25.5569 60.3184 25.4654 59.973 25.4654ZM65.0878 30.1087C64.7085 30.1087 64.3698 30.0477 64.0717 29.9258C63.7805 29.8039 63.5536 29.6413 63.391 29.4381C63.2352 29.2349 63.1573 29.008 63.1573 28.7574V28.6354C63.1573 28.5677 63.1912 28.5338 63.2589 28.5338H63.7466C63.8144 28.5338 63.8482 28.5677 63.8482 28.6354V28.7167C63.8482 28.9402 63.9634 29.1367 64.1937 29.306C64.4307 29.4686 64.7254 29.5499 65.0776 29.5499C65.4298 29.5499 65.7143 29.472 65.9311 29.3162C66.1478 29.1536 66.2562 28.9504 66.2562 28.7066C66.2562 28.5372 66.1986 28.3984 66.0835 28.29C65.9751 28.1816 65.843 28.0969 65.6872 28.036C65.5382 27.975 65.3045 27.8971 64.9862 27.8023C64.6069 27.6939 64.2953 27.5855 64.0514 27.4772C63.8076 27.3688 63.601 27.2198 63.4317 27.0301C63.2691 26.8337 63.1878 26.5865 63.1878 26.2884C63.1878 25.8549 63.3571 25.5095 63.6958 25.2521C64.0345 24.9947 64.4815 24.866 65.037 24.866C65.4095 24.866 65.738 24.927 66.0225 25.0489C66.3138 25.1708 66.5373 25.3401 66.6931 25.5569C66.8489 25.7669 66.9268 26.0039 66.9268 26.2681V26.2986C66.9268 26.3663 66.8929 26.4002 66.8252 26.4002H66.3476C66.2799 26.4002 66.246 26.3663 66.246 26.2986V26.2681C66.246 26.0378 66.1343 25.8448 65.9107 25.689C65.694 25.5332 65.3993 25.4553 65.0268 25.4553C64.6814 25.4553 64.4036 25.5264 64.1937 25.6687C63.9837 25.8041 63.8787 25.9938 63.8787 26.2376C63.8787 26.4679 63.9803 26.644 64.1835 26.766C64.3867 26.8879 64.7017 27.0098 65.1284 27.1317C65.5213 27.2469 65.8396 27.3552 66.0835 27.4568C66.3273 27.5585 66.5373 27.7075 66.7134 27.9039C66.8895 28.0936 66.9776 28.3442 66.9776 28.6558C66.9776 29.096 66.8048 29.4482 66.4594 29.7124C66.1139 29.9766 65.6567 30.1087 65.0878 30.1087Z" fill="#2A4A45"/>
<path d="M33.9582 57.0248C33.9582 58.0814 33.6195 58.9552 32.9422 59.6461C32.2784 60.3235 31.3504 60.7299 30.1583 60.8653C30.1041 60.8653 30.077 60.8924 30.077 60.9466L30.0973 62.369C30.0973 62.5045 30.0296 62.5722 29.8941 62.5722H28.5529C28.4175 62.5722 28.3497 62.5045 28.3497 62.369L28.3701 60.9263C28.3701 60.8721 28.343 60.845 28.2888 60.845C27.0831 60.6824 26.1416 60.2625 25.4642 59.5851C24.7869 58.8943 24.4482 58.0137 24.4482 56.9435V56.3542C24.4482 56.2187 24.516 56.151 24.6514 56.151H26.0535C26.189 56.151 26.2567 56.2187 26.2567 56.3542V56.8419C26.2567 57.5328 26.5412 58.1018 27.1102 58.5488C27.6792 58.9959 28.4513 59.2194 29.4267 59.2194C30.3073 59.2194 30.9711 59.0229 31.4181 58.6301C31.8787 58.2372 32.109 57.7224 32.109 57.0857C32.109 56.6658 31.9939 56.3068 31.7636 56.0088C31.5333 55.7107 31.1946 55.4398 30.7476 55.1959C30.3005 54.9385 29.6503 54.6337 28.7968 54.2815C27.8485 53.9022 27.1034 53.5568 26.5615 53.2452C26.0197 52.9336 25.5658 52.5272 25.2001 52.0259C24.8479 51.5112 24.6717 50.8677 24.6717 50.0955C24.6717 49.0659 24.9901 48.2328 25.6268 47.5961C26.2635 46.9458 27.1305 46.5462 28.2278 46.3972C28.282 46.3972 28.3091 46.3701 28.3091 46.3159L28.2888 44.7512C28.2888 44.6158 28.3565 44.548 28.492 44.548H29.8128C29.9483 44.548 30.016 44.6158 30.016 44.7512L29.9957 46.3362C29.9957 46.3904 30.0228 46.4243 30.077 46.4378C31.242 46.6004 32.1564 47.0339 32.8202 47.7383C33.4976 48.4428 33.8363 49.3301 33.8363 50.4003V50.8067C33.8363 50.9422 33.7685 51.0099 33.6331 51.0099H32.2106C32.0752 51.0099 32.0074 50.9422 32.0074 50.8067V50.5019C32.0074 49.7975 31.7433 49.215 31.2149 48.7544C30.6866 48.2802 29.9483 48.0431 29 48.0431C28.2007 48.0431 27.5843 48.2193 27.1508 48.5715C26.7173 48.9102 26.5006 49.4046 26.5006 50.0549C26.5006 50.5019 26.609 50.8677 26.8257 51.1522C27.056 51.4367 27.3811 51.694 27.8011 51.9243C28.2346 52.1411 28.8916 52.4256 29.7722 52.7778C30.6934 53.1571 31.4317 53.5093 31.9871 53.8345C32.5561 54.146 33.0234 54.566 33.3892 55.0943C33.7685 55.6091 33.9582 56.2526 33.9582 57.0248ZM38.3977 46.5801C38.479 46.5394 38.567 46.5191 38.6619 46.5191H40.2672C40.4027 46.5191 40.4704 46.5869 40.4704 46.7223V60.5402C40.4704 60.6757 40.4027 60.7434 40.2672 60.7434H38.7228C38.5874 60.7434 38.5196 60.6757 38.5196 60.5402V48.6121C38.5196 48.585 38.5061 48.5647 38.479 48.5512C38.4654 48.5376 38.4451 48.5376 38.418 48.5512L36.2844 49.2827C36.2573 49.2962 36.2234 49.303 36.1828 49.303C36.1015 49.303 36.0541 49.2488 36.0405 49.1405L35.9593 47.9822C35.9593 47.8467 35.9999 47.7654 36.0812 47.7383L38.3977 46.5801ZM51.2923 49.0185C51.4955 49.5875 51.5971 50.2445 51.5971 50.9896V57.2483C51.5971 58.3591 51.211 59.2465 50.4388 59.9103C49.6667 60.5741 48.6574 60.906 47.4111 60.906C46.6118 60.906 45.9006 60.757 45.2774 60.4589C44.6678 60.1609 44.1937 59.7477 43.855 59.2194C43.5163 58.6775 43.347 58.0611 43.347 57.3702V56.9638C43.347 56.8283 43.4147 56.7606 43.5502 56.7606H45.0946C45.23 56.7606 45.2978 56.8283 45.2978 56.9638V57.1467C45.2978 57.7563 45.4942 58.2508 45.8871 58.6301C46.2799 59.0094 46.7879 59.1991 47.4111 59.1991C48.0613 59.1991 48.5964 59.0026 49.0164 58.6098C49.4364 58.2169 49.6463 57.6953 49.6463 57.0451V54.4847C49.6463 54.4576 49.6328 54.4373 49.6057 54.4238C49.5921 54.4102 49.5718 54.417 49.5447 54.4441C48.9622 55.1079 48.1155 55.4398 47.0047 55.4398C46.2054 55.4398 45.5145 55.2772 44.932 54.9521C44.363 54.627 43.916 54.1528 43.5908 53.5297C43.2115 52.8117 43.0219 51.9514 43.0219 50.949C43.0219 50.1362 43.1506 49.4114 43.408 48.7747C43.7195 48.0025 44.2072 47.4132 44.871 47.0068C45.5348 46.5869 46.3341 46.3769 47.2688 46.3769C48.2713 46.3769 49.118 46.6072 49.8089 47.0678C50.4998 47.5284 50.9943 48.1786 51.2923 49.0185ZM49.3212 52.5746C49.538 52.1276 49.6463 51.5518 49.6463 50.8474C49.6463 50.2784 49.5583 49.7975 49.3822 49.4046C49.2061 48.9711 48.9419 48.646 48.5897 48.4292C48.2375 48.1989 47.8107 48.0838 47.3095 48.0838C46.8082 48.0838 46.3815 48.1989 46.0293 48.4292C45.6906 48.646 45.44 48.9643 45.2774 49.3843C45.0742 49.8043 44.9726 50.3258 44.9726 50.949C44.9726 51.6263 45.0878 52.1817 45.3181 52.6152C45.738 53.401 46.4018 53.7938 47.3095 53.7938C48.2713 53.7938 48.9419 53.3874 49.3212 52.5746ZM54.1248 62.491C54.057 62.491 54.0028 62.4706 53.9622 62.43C53.9351 62.3894 53.9283 62.3352 53.9419 62.2674L54.7547 57.7563C54.7818 57.6344 54.8563 57.5734 54.9782 57.5734H56.3194C56.3871 57.5734 56.4345 57.5937 56.4616 57.6344C56.5023 57.675 56.5158 57.7292 56.5023 57.7969L55.3033 62.3081C55.2763 62.43 55.2017 62.491 55.0798 62.491H54.1248ZM60.9661 60.7434C60.8983 60.7434 60.8442 60.7231 60.8035 60.6824C60.7764 60.6283 60.7764 60.5673 60.8035 60.4996L65.4162 48.3073C65.4298 48.2802 65.4298 48.2599 65.4162 48.2464C65.4027 48.2193 65.3824 48.2057 65.3553 48.2057H60.4581C60.4039 48.2057 60.3768 48.2328 60.3768 48.287V49.2421C60.3768 49.3775 60.309 49.4453 60.1736 49.4453H58.9544C58.8189 49.4453 58.7511 49.3775 58.7511 49.2421V46.7223C58.7511 46.5869 58.8189 46.5191 58.9544 46.5191H67.306C67.4415 46.5191 67.5092 46.5869 67.5092 46.7223V48.0838C67.5092 48.138 67.4957 48.2193 67.4686 48.3276L62.8762 60.5808C62.8356 60.6892 62.761 60.7434 62.6527 60.7434H60.9661ZM77.0689 53.7329C77.4482 54.4509 77.6379 55.3111 77.6379 56.3136C77.6379 57.1399 77.5024 57.8647 77.2315 58.4878C76.9199 59.26 76.4322 59.8561 75.7684 60.276C75.1181 60.6824 74.3256 60.8857 73.3909 60.8857C72.3884 60.8857 71.535 60.6554 70.8305 60.1948C70.1396 59.7342 69.6519 59.0839 69.3675 58.244C69.1643 57.675 69.0626 57.018 69.0626 56.2729V50.0142C69.0626 48.9034 69.4487 48.0161 70.2209 47.3523C70.9931 46.6885 72.0023 46.3566 73.2487 46.3566C74.0479 46.3566 74.7524 46.5056 75.362 46.8036C75.9851 47.1016 76.4661 47.5216 76.8047 48.0635C77.1434 48.5918 77.3127 49.2014 77.3127 49.8923V50.2987C77.3127 50.4342 77.245 50.5019 77.1095 50.5019H75.5652C75.4297 50.5019 75.362 50.4342 75.362 50.2987V50.1158C75.362 49.5062 75.1655 49.0118 74.7727 48.6324C74.3798 48.2531 73.8718 48.0635 73.2487 48.0635C72.5849 48.0635 72.043 48.2599 71.623 48.6528C71.2166 49.0456 71.0134 49.5672 71.0134 50.2174V52.7778C71.0134 52.8049 71.0202 52.8252 71.0337 52.8388C71.0608 52.8388 71.0879 52.8252 71.115 52.7981C71.6975 52.1479 72.5442 51.8227 73.6551 51.8227C75.2536 51.8227 76.3915 52.4595 77.0689 53.7329ZM75.3823 57.8782C75.5855 57.4447 75.6871 56.9232 75.6871 56.3136C75.6871 55.6227 75.5652 55.0672 75.3213 54.6473C74.9285 53.8616 74.2647 53.4687 73.3299 53.4687C72.8558 53.4687 72.4494 53.5771 72.1107 53.7938C71.772 53.997 71.5146 54.2951 71.3385 54.6879C71.1218 55.135 71.0134 55.7107 71.0134 56.4152C71.0134 56.9841 71.1015 57.465 71.2776 57.8579C71.4537 58.2914 71.7178 58.6233 72.0701 58.8536C72.4223 59.0704 72.849 59.1787 73.3503 59.1787C74.3392 59.1787 75.0165 58.7452 75.3823 57.8782ZM88.0508 54.4441C88.1998 55.0401 88.2743 55.6565 88.2743 56.2932C88.2743 56.9299 88.193 57.5192 88.0305 58.0611C87.7731 58.9281 87.2786 59.619 86.5471 60.1338C85.8291 60.635 84.9689 60.8857 83.9664 60.8857C82.9775 60.8857 82.1308 60.6418 81.4264 60.1541C80.7219 59.6664 80.2274 59.0026 79.943 58.1627C79.8075 57.7834 79.733 57.4515 79.7194 57.167V57.1264C79.7194 57.018 79.7804 56.9638 79.9023 56.9638H81.5076C81.6296 56.9638 81.6973 57.0248 81.7108 57.1467C81.7244 57.2415 81.7583 57.3838 81.8124 57.5734C81.9615 58.0747 82.2188 58.4743 82.5846 58.7723C82.9639 59.0568 83.4178 59.1991 83.9461 59.1991C84.5015 59.1991 84.9689 59.05 85.3482 58.752C85.7411 58.4404 86.0052 58.0137 86.1407 57.4718C86.2355 57.1873 86.2829 56.7945 86.2829 56.2932C86.2829 55.8462 86.2423 55.433 86.161 55.0537C86.0662 54.5389 85.8223 54.146 85.4295 53.8751C85.0502 53.5906 84.576 53.4484 84.007 53.4484C83.4787 53.4484 83.0046 53.5703 82.5846 53.8141C82.1647 54.0444 81.8937 54.356 81.7718 54.7489C81.7312 54.8708 81.6566 54.9318 81.5483 54.9318H79.9226C79.7872 54.9318 79.7194 54.864 79.7194 54.7286V46.7223C79.7194 46.5869 79.7872 46.5191 79.9226 46.5191H87.5225C87.6579 46.5191 87.7257 46.5869 87.7257 46.7223V48.0025C87.7257 48.138 87.6579 48.2057 87.5225 48.2057H81.7515C81.6973 48.2057 81.6702 48.2328 81.6702 48.287L81.6499 52.534C81.6499 52.6152 81.6837 52.6356 81.7515 52.5949C82.0766 52.3104 82.4491 52.1005 82.8691 51.965C83.3026 51.816 83.7564 51.7415 84.2306 51.7415C85.1789 51.7415 85.9917 51.9785 86.669 52.4527C87.3599 52.9268 87.8205 53.5906 88.0508 54.4441ZM94.9077 60.9466C93.5394 60.9466 92.4489 60.5605 91.6361 59.7883C90.8368 59.0026 90.4372 57.9527 90.4372 56.6387V50.6238C90.4372 49.3098 90.8368 48.2667 91.6361 47.4945C92.4489 46.7223 93.5394 46.3362 94.9077 46.3362C96.2759 46.3362 97.3665 46.7223 98.1793 47.4945C99.0056 48.2667 99.4188 49.3098 99.4188 50.6238V56.6387C99.4188 57.9527 99.0056 59.0026 98.1793 59.7883C97.3665 60.5605 96.2759 60.9466 94.9077 60.9466ZM94.9077 59.26C95.6934 59.26 96.3166 59.0365 96.7772 58.5894C97.2378 58.1288 97.4681 57.5192 97.4681 56.7606V50.5426C97.4681 49.7839 97.2378 49.1811 96.7772 48.734C96.3166 48.2734 95.6934 48.0431 94.9077 48.0431C94.1491 48.0431 93.5394 48.2734 93.0788 48.734C92.6182 49.1811 92.3879 49.7839 92.3879 50.5426V56.7606C92.3879 57.5192 92.6182 58.1288 93.0788 58.5894C93.5394 59.0365 94.1491 59.26 94.9077 59.26Z" fill="#264B45"/>
<path d="M155.756 64.7122C155.934 65.1464 156.022 65.647 156.022 66.2141C156.022 66.6837 155.951 67.1178 155.81 67.5166C155.615 68.0659 155.291 68.4912 154.839 68.7925C154.387 69.0849 153.843 69.2311 153.205 69.2311C152.567 69.2311 152.013 69.0672 151.543 68.7393C151.082 68.4115 150.759 67.9685 150.573 67.4102C150.476 67.1621 150.418 66.8077 150.4 66.347C150.4 66.2584 150.445 66.2141 150.533 66.2141H151.557C151.645 66.2141 151.689 66.2584 151.689 66.347C151.707 66.666 151.743 66.9008 151.796 67.0514C151.884 67.3792 152.048 67.6406 152.288 67.8355C152.536 68.0305 152.841 68.1279 153.205 68.1279C153.878 68.1279 154.33 67.8223 154.56 67.2109C154.675 66.9451 154.733 66.5995 154.733 66.1742C154.733 65.7223 154.662 65.3192 154.52 64.9647C154.272 64.4154 153.829 64.1407 153.191 64.1407C153.041 64.1407 152.85 64.2072 152.62 64.3401C152.584 64.3578 152.558 64.3666 152.54 64.3666C152.496 64.3666 152.46 64.3445 152.434 64.3002L151.929 63.6091C151.911 63.5736 151.902 63.5426 151.902 63.516C151.902 63.4894 151.915 63.4584 151.942 63.423L154.215 60.9908C154.241 60.9465 154.232 60.9243 154.188 60.9243H150.653C150.564 60.9243 150.52 60.88 150.52 60.7914V59.9541C150.52 59.8655 150.564 59.8212 150.653 59.8212H155.81C155.898 59.8212 155.942 59.8655 155.942 59.9541V60.911C155.942 60.9553 155.92 61.0085 155.876 61.0705L153.856 63.2768C153.838 63.2945 153.834 63.3122 153.843 63.33C153.851 63.3388 153.869 63.3477 153.896 63.3565C154.348 63.4008 154.729 63.5426 155.039 63.7818C155.349 64.0122 155.588 64.3223 155.756 64.7122ZM159.164 67.9552C159.156 67.9729 159.156 67.9906 159.164 68.0083C159.173 68.0172 159.187 68.0216 159.204 68.0216H163.205C163.293 68.0216 163.338 68.0659 163.338 68.1545V68.9918C163.338 69.0805 163.293 69.1248 163.205 69.1248H157.636C157.547 69.1248 157.503 69.0805 157.503 68.9918V68.1811C157.503 68.1191 157.525 68.0659 157.569 68.0216C157.871 67.6761 158.562 66.8653 159.643 65.5894L160.56 64.4863C161.384 63.5027 161.796 62.7407 161.796 62.2002C161.796 61.7838 161.654 61.4515 161.371 61.2034C161.096 60.9465 160.728 60.818 160.268 60.818C159.807 60.818 159.439 60.9465 159.164 61.2034C158.89 61.4604 158.757 61.7971 158.766 62.2135V62.6123C158.766 62.7009 158.721 62.7452 158.633 62.7452H157.609C157.521 62.7452 157.476 62.7009 157.476 62.6123V62.0407C157.494 61.58 157.623 61.1724 157.862 60.818C158.11 60.4636 158.442 60.1933 158.859 60.0073C159.275 59.8123 159.745 59.7149 160.268 59.7149C160.835 59.7149 161.331 59.8212 161.756 60.0338C162.181 60.2465 162.509 60.5389 162.74 60.911C162.97 61.2832 163.085 61.704 163.085 62.1737C163.085 62.9091 162.686 63.7774 161.889 64.7787C161.535 65.2305 161.114 65.74 160.626 66.3071C160.139 66.8653 159.652 67.4147 159.164 67.9552ZM167.098 63.6356C166.735 63.6356 166.398 63.547 166.088 63.3698C165.787 63.1926 165.548 62.9534 165.37 62.6521C165.193 62.3509 165.105 62.0186 165.105 61.6553C165.105 61.3009 165.193 60.9731 165.37 60.6718C165.548 60.3705 165.787 60.1357 166.088 59.9674C166.398 59.7902 166.735 59.7016 167.098 59.7016C167.453 59.7016 167.781 59.7902 168.082 59.9674C168.383 60.1446 168.622 60.3838 168.8 60.6851C168.977 60.9775 169.065 61.3009 169.065 61.6553C169.065 62.0186 168.977 62.3509 168.8 62.6521C168.622 62.9534 168.383 63.1926 168.082 63.3698C167.781 63.547 167.453 63.6356 167.098 63.6356ZM166.713 69.1248C166.66 69.1248 166.624 69.1115 166.607 69.0849C166.589 69.0494 166.593 69.0096 166.62 68.9653L171.644 59.9142C171.679 59.8522 171.732 59.8212 171.803 59.8212H172.454C172.508 59.8212 172.543 59.8389 172.561 59.8743C172.579 59.9009 172.574 59.9364 172.548 59.9807L167.524 69.0317C167.497 69.0937 167.444 69.1248 167.364 69.1248H166.713ZM167.098 62.8515C167.426 62.8515 167.701 62.7363 167.922 62.5059C168.144 62.2756 168.255 61.992 168.255 61.6553C168.255 61.3275 168.139 61.0528 167.909 60.8313C167.688 60.6009 167.417 60.4857 167.098 60.4857C166.77 60.4857 166.491 60.6009 166.261 60.8313C166.031 61.0528 165.915 61.3275 165.915 61.6553C165.915 61.992 166.031 62.2756 166.261 62.5059C166.491 62.7363 166.77 62.8515 167.098 62.8515ZM172.162 69.2444C171.799 69.2444 171.462 69.1558 171.152 68.9786C170.851 68.8013 170.611 68.5621 170.434 68.2609C170.257 67.9596 170.168 67.6318 170.168 67.2773C170.168 66.9229 170.257 66.5951 170.434 66.2938C170.611 65.9926 170.851 65.7533 171.152 65.5761C171.462 65.3989 171.799 65.3103 172.162 65.3103C172.517 65.3103 172.844 65.3989 173.146 65.5761C173.447 65.7533 173.686 65.9926 173.863 66.2938C174.041 66.5951 174.129 66.9229 174.129 67.2773C174.129 67.6318 174.041 67.9596 173.863 68.2609C173.686 68.5621 173.447 68.8013 173.146 68.9786C172.844 69.1558 172.517 69.2444 172.162 69.2444ZM172.162 68.4602C172.49 68.4602 172.765 68.345 172.986 68.1147C173.208 67.8843 173.318 67.6052 173.318 67.2773C173.318 66.9495 173.203 66.6704 172.973 66.44C172.751 66.2096 172.481 66.0944 172.162 66.0944C171.834 66.0944 171.555 66.2096 171.325 66.44C171.094 66.6704 170.979 66.9495 170.979 67.2773C170.979 67.6052 171.094 67.8843 171.325 68.1147C171.555 68.345 171.834 68.4602 172.162 68.4602Z" fill="#02B994"/>
<path d="M180.363 68.1287C180.206 68.4423 180.333 68.8238 180.647 68.9806C180.961 69.1375 181.342 69.0103 181.499 68.6966L180.363 68.1287ZM194.901 58.8712C194.892 58.5206 194.601 58.2437 194.25 58.2526L188.537 58.3991C188.186 58.4081 187.909 58.6996 187.918 59.0502C187.927 59.4008 188.219 59.6777 188.569 59.6687L193.648 59.5385L193.778 64.617C193.787 64.9676 194.079 65.2445 194.429 65.2355C194.78 65.2265 195.057 64.935 195.048 64.5844L194.901 58.8712ZM183.417 63.4406L182.849 63.1566L183.417 63.4406ZM181.499 68.6966L183.985 63.7246L182.849 63.1566L180.363 68.1287L181.499 68.6966ZM184.94 63.5053L186.94 65.0432L187.714 64.0366L185.715 62.4986L184.94 63.5053ZM189.482 64.8453L194.727 59.3248L193.806 58.4501L188.562 63.9706L189.482 64.8453ZM186.94 65.0432C187.713 65.638 188.81 65.5526 189.482 64.8453L188.562 63.9706C188.338 64.2064 187.972 64.2348 187.714 64.0366L186.94 65.0432ZM183.985 63.7246C184.164 63.3674 184.624 63.2618 184.94 63.5053L185.715 62.4986C184.765 61.7682 183.385 62.0851 182.849 63.1566L183.985 63.7246Z" fill="#02B994"/>
<rect x="23.4932" y="120.974" width="14.5755" height="6.70505" rx="3.35252" fill="#02B994"/>
<rect x="47.0928" y="116.951" width="13.8814" height="10.7281" rx="3.81008" fill="#02B994"/>
<rect x="69.998" y="110.917" width="14.5755" height="16.7626" rx="3.81008" fill="#02B994"/>
<rect x="92.2041" y="102.2" width="14.5755" height="25.4792" rx="3.81008" fill="#02B994"/>
<rect x="114.417" y="88.1194" width="14.5755" height="39.5598" rx="3.81008" fill="#02B994"/>
<rect x="136.625" y="88.1194" width="14.5755" height="39.5598" rx="3.81008" fill="#02B994"/>
<rect x="158.838" y="82.0847" width="14.5755" height="45.5943" rx="3.81008" fill="#02B994"/>
<rect x="181.046" y="70.0159" width="14.5755" height="57.6634" rx="3.81008" fill="#02B994"/>
</g>
<defs>
<filter id="filter0_d_1_2599" x="0.107942" y="0.286744" width="236.347" height="156.961" filterUnits="userSpaceOnUse" color-interpolation-filters="sRGB">
<feFlood flood-opacity="0" result="BackgroundImageFix"/>
<feColorMatrix in="SourceAlpha" type="matrix" values="0 0 0 0 0 0 0 0 0 0 0 0 0 0 0 0 0 0 127 0" result="hardAlpha"/>
<feOffset dx="1.08916" dy="3.26747"/>
<feGaussianBlur stdDeviation="5.99036"/>
<feComposite in2="hardAlpha" operator="out"/>
<feColorMatrix type="matrix" values="0 0 0 0 0 0 0 0 0 0 0 0 0 0 0 0 0 0 0.11 0"/>
<feBlend mode="normal" in2="BackgroundImageFix" result="effect1_dropShadow_1_2599"/>
<feBlend mode="normal" in="SourceGraphic" in2="effect1_dropShadow_1_2599" result="shape"/>
</filter>
</defs>
</svg>
